Coordinates
version=1
nRows=14
nColumns=33
inDegrees=yes

Units are S.I. units (second, meters, Newtons, ...)
Angles are in degrees.

endheader
time	ground_thorax_rot_x	ground_thorax_rot_y	ground_thorax_rot_z	ground_thorax_tx	ground_thorax_ty	ground_thorax_tz	clav_prot_r	clav_elev_r	scapula_abduction_r	scapula_elevation_r	scapula_upward_rot_r	scapula_winging_r	shoulder_elv_r	plane_of_elev_r	axial_rot_r	elbow_flexion_r	pro_sup_r	wrist_flex_r	wrist_dev_r	clav_prot_l	clav_elev_l	scapula_abduction_l	scapula_elevation_l	scapula_upward_rot_l	scapula_winging_l	shoulder_elv_l	plane_of_elev_l	axial_rot_l	elbow_flexion_l	pro_sup_l	wrist_flex_l	wrist_dev_l
      6.34000000	     28.33141811	     27.73941243	     39.69862916	      0.56757993	    780.05030773	    -43.40247815	     12.67732479	     35.30032950	     24.33010354	     45.00000000	    -45.00000000	  -1162.06119172	  -2446.83850045	     22.70087338	    179.99999979	    365.27287496	   -166.85779247	     13.65357873	     12.60084191	    -11.66004717	    -45.00000000	    -37.40558517	     45.00000000	    -45.00000000	  -3496.72699533	   1517.04483367	     24.73604293	     23.77290118	   1791.31611258	     50.63674470	     10.95780862	    -17.01128119
      6.35000000	     28.36246001	     27.59518040	     39.52600307	     -1.82359449	    781.00460809	    -43.43376694	     12.70284141	     35.24177133	     24.19279086	     45.00000000	    -45.00000000	  -1162.15225544	  -2446.75599002	     22.71619653	    179.99999979	    365.24548433	   -166.91991815	     13.67632002	     12.62527146	    -11.60260164	    -45.00000000	    -37.42941331	     45.00000000	    -45.00000000	  -3496.66225422	   1517.10036854	     24.72958136	     23.81202296	   1791.30705127	     50.47670895	     10.98590329	    -16.99357216
      6.36000000	     28.49626518	     27.33098390	     39.22557763	     -4.19775531	    782.01830799	    -43.46393200	     12.61123288	     35.30993038	     24.25890991	     45.00000000	    -45.00000000	  -1162.35684894	  -2446.75372252	     22.79443506	    179.99999979	    365.22045073	   -166.98566566	     13.72680197	     12.76897250	    -11.56136135	    -45.00000000	    -37.43034466	     45.00000000	    -45.00000000	  -3496.47899431	   1517.06048378	     24.84478205	     23.93381829	   1791.34231365	     50.30855027	     11.10808147	    -17.09775863
      6.37000000	     28.57130263	     27.11866453	     38.97022594	     -6.55301726	    783.09351631	    -43.49158194	     12.63271350	     35.22197196	     24.13607719	     45.00000000	    -45.00000000	  -1162.36484313	  -2446.68288805	     22.84755688	    179.99999979	    365.27698003	   -167.06857107	     13.72406068	     12.85401024	    -11.47306694	    -45.00000000	    -37.59322070	     45.00000000	    -45.00000000	  -3496.43967954	   1517.06926235	     24.82942241	     23.95177828	   1791.26891057	     50.14614313	     11.17772165	    -17.09437694
      6.38000000	     28.55584967	     26.97975388	     38.89048566	     -8.87849800	    784.22745464	    -43.51578761	     12.64653415	     35.18414238	     24.08511068	     45.00000000	    -45.00000000	  -1162.49717456	  -2446.67485129	     22.82562614	    179.99999979	    365.25848535	   -167.18752638	     13.74267838	     12.86936610	    -11.36638866	    -45.00000000	    -37.58218402	     45.00000000	    -45.00000000	  -3496.36897723	   1517.20635421	     24.78731546	     24.08344242	   1791.22827645	     49.95639825	     11.23987244	    -17.08570785
      6.39000000	     28.64936975	     26.78702690	     38.66029971	    -11.18452178	    785.42666153	    -43.53660818	     12.61080143	     35.18430924	     24.07400383	     45.00000000	    -45.00000000	  -1162.65760126	  -2446.64995261	     22.83207479	    179.99999979	    365.21394038	   -167.32728455	     13.78499737	     12.95966424	    -11.29779672	    -45.00000000	    -37.61054967	     45.00000000	    -45.00000000	  -3496.24883047	   1517.23822768	     24.88153453	     24.20955893	   1791.20704492	     49.75209077	     11.35519263	    -17.13689744
      6.40000000	     28.78828658	     26.52013910	     38.30629838	    -13.46460631	    786.68901175	    -43.55469314	     12.58123374	     35.17722991	     24.08201106	     45.00000000	    -45.00000000	  -1162.75438628	  -2446.58115735	     22.96250317	    179.99999979	    365.30285545	   -167.46949030	     13.78222626	     13.08276260	    -11.23197790	    -45.00000000	    -37.77678135	     45.00000000	    -45.00000000	  -3496.15978647	   1517.17924320	     24.96322643	     24.33069742	   1791.12915330	     49.55122400	     11.49609498	    -17.19663564
      6.41000000	     28.84372263	     26.39327777	     38.10716534	    -15.72261394	    788.01754616	    -43.57153681	     12.61701946	     35.13056365	     23.94220044	     45.00000000	    -45.00000000	  -1162.89545776	  -2446.59787659	     23.00872228	    179.99999979	    365.30073769	   -167.63653990	     13.79534553	     13.11435567	    -11.14102526	    -45.00000000	    -37.70698471	     45.00000000	    -45.00000000	  -3496.16405139	   1517.33304105	     25.03875669	     24.50843013	   1790.93493761	     49.35640365	     11.62959636	    -17.17888854
      6.42000000	     28.84933607	     26.24409250	     38.07057681	    -17.95222332	    789.40933882	    -43.58919499	     12.60722255	     35.07734584	     23.95585894	     45.00000000	    -45.00000000	  -1163.01357071	  -2446.49124089	     22.92235456	    179.99999979	    365.20495897	   -167.83857674	     13.85612038	     13.14763756	    -11.03729881	    -45.00000000	    -37.79208424	     45.00000000	    -45.00000000	  -3495.99596078	   1517.32870157	     24.97706827	     24.57557722	   1791.05829877	     49.08650305	     11.66891699	    -17.21600698
      6.43000000	     28.88380483	     26.08413869	     37.88165006	    -20.15645894	    790.86682213	    -43.60993165	     12.60669311	     35.05167167	     23.93947889	     45.00000000	    -45.00000000	  -1163.17645453	  -2446.49139829	     22.94118386	    179.99999979	    365.18595782	   -168.05095580	     13.89094201	     13.18639354	    -10.93000262	    -45.00000000	    -37.84928987	     45.00000000	    -45.00000000	  -3495.95481358	   1517.46425031	     24.99490858	     24.81827029	   1791.01837403	     48.79925074	     11.76887763	    -17.22809181
      6.44000000	     28.94177990	     25.91242112	     37.75617716	    -22.33000052	    792.38678371	    -43.63618293	     12.60905655	     35.00118048	     23.90896930	     45.00000000	    -45.00000000	  -1163.27794221	  -2446.42605166	     22.93842955	    179.99999979	    365.16768932	   -168.27322261	     13.92815294	     13.22866127	    -10.83120795	    -45.00000000	    -37.93254574	     45.00000000	    -45.00000000	  -3495.85206473	   1517.51346712	     24.99564277	     24.95179298	   1790.94640948	     48.49322965	     11.86826705	    -17.22344427
      6.45000000	     29.01475040	     25.68607811	     37.54437544	    -24.47586663	    793.97103026	    -43.67043192	     12.58594754	     35.00119816	     23.94110186	     45.00000000	    -45.00000000	  -1163.45134396	  -2446.41086215	     23.01761734	    179.99999979	    365.13877614	   -168.48889812	     13.98966806	     13.29858437	    -10.72802373	    -45.00000000	    -38.05419417	     45.00000000	    -45.00000000	  -3495.73608985	   1517.57069854	     25.04728335	     25.19303231	   1790.88063027	     48.17299025	     12.00465287	    -17.25819800
      6.46000000	     29.02006117	     25.59583221	     37.43254390	    -26.58941954	    795.61579472	    -43.71526730	     12.64091988	     34.88307649	     23.85238544	     45.00000000	    -45.00000000	  -1163.49908639	  -2446.30047840	     22.96229524	    179.99999979	    365.17574466	   -168.73019586	     13.99572207	     13.29681027	    -10.61441284	    -45.00000000	    -38.11465086	     45.00000000	    -45.00000000	  -3495.79244137	   1517.72941682	     24.99823385	     25.34391359	   1790.78579439	     47.81462171	     12.06519748	    -17.19390717
      6.47000000	     29.07386914	     25.41628851	     37.26051424	    -28.67221995	    797.32167230	    -43.77296962	     12.63224901	     34.88705136	     23.85160229	     45.00000000	    -45.00000000	  -1163.66568951	  -2446.28742168	     22.99257567	    179.99999979	    365.11152610	   -168.97439201	     14.07190030	     13.32364228	    -10.53781577	    -45.00000000	    -38.19557724	     45.00000000	    -45.00000000	  -3495.72681345	   1517.81840007	     25.04033898	     25.64372908	   1790.73569235	     47.43670341	     12.15479754	    -17.17539722
